Coordinates
version=1
nRows=17
nColumns=36
inDegrees=yes

Units are S.I. units (second, meters, Newtons, ...)
If the header above contains a line with 'inDegrees', this indicates whether rotational values are in degrees (yes) or radians (no).

endheader
time	pelvis_tilt	pelvis_list	pelvis_rotation	pelvis_tx	pelvis_ty	pelvis_tz	hip_flexion_r	hip_adduction_r	hip_rotation_r	knee_angle_r	knee_angle_r_beta	ankle_angle_r	subtalar_angle_r	mtp_angle_r	hip_flexion_l	hip_adduction_l	hip_rotation_l	knee_angle_l	knee_angle_l_beta	ankle_angle_l	subtalar_angle_l	mtp_angle_l	lumbar_extension	lumbar_bending	lumbar_rotation	arm_flex_r	arm_add_r	arm_rot_r	elbow_flex_r	pro_sup_r	arm_flex_l	arm_add_l	arm_rot_l	elbow_flex_l	pro_sup_l
      1.64000000	    -24.63048874	     -5.36482845	     -9.52806570	     -0.39166794	      0.78034506	     -0.55774292	     86.58563622	     -0.72327894	      5.00341152	     93.40892432	      1.63029328	     20.96735797	    -14.50053167	     -7.41458359	     85.37012311	    -14.99558221	     16.39612435	    101.72099032	      1.77536620	     22.00137069	    -28.55029069	     -7.41458359	    -25.75153349	     -1.38471723	      5.28756393	    132.60599271	    -21.78489021	     37.68664961	     85.30221751	    104.05572503	    132.03012652	     -6.62494056	     38.60157908	     79.50999412	    106.15528906
      1.65000000	    -24.29402289	     -5.47113980	     -9.23503111	     -0.38712574	      0.79503545	     -0.55850745	     84.46916858	     -0.43403638	      5.19073789	     91.46747966	      1.59640868	     20.84839428	    -15.05511810	     -7.41534404	     83.30448995	    -14.98786922	     15.84978488	     99.64647647	      1.73915910	     21.83810713	    -28.38138254	     -7.41534404	    -25.15894768	     -1.14357715	      4.60972337	    134.13570314	    -22.39865323	     38.85492750	     84.87829398	    103.90919686	    133.71091241	     -7.13640525	     39.46236739	     78.37766893	    106.23069529
      1.66000000	    -23.79043217	     -5.40546196	     -8.68421852	     -0.38238560	      0.81040209	     -0.55987442	     82.16505237	     -0.46285592	      5.56402305	     89.44468017	      1.56110417	     20.43377758	    -15.88481472	     -7.41622827	     80.96621631	    -14.64197980	     15.13532974	     97.40585717	      1.70005292	     21.60282919	    -28.23533092	     -7.41622827	    -24.76062630	     -1.01496606	      3.72411736	    136.00426439	    -23.23956635	     40.37941939	     84.44398890	    103.71104775	    135.53312776	     -7.65169687	     40.67268253	     77.20433531	    106.35645056
      1.67000000	    -23.30034937	     -5.32643275	     -8.19139306	     -0.37729926	      0.82621137	     -0.56106164	     79.79107624	     -0.43106581	      5.94784776	     87.28523361	      1.52341471	     19.97399171	    -16.79109042	     -7.41711257	     78.55990485	    -14.38232180	     14.41187688	     95.01700995	      1.65835967	     21.32951341	    -28.11202261	     -7.41711257	    -24.24570559	     -0.91200279	      2.85789859	    137.71549064	    -24.08071383	     42.01027288	     84.08019719	    103.52779550	    137.25104942	     -8.22775562	     42.12934297	     76.00352729	    106.42556109
      1.68000000	    -22.88588427	     -5.30803033	     -7.81303112	     -0.37200288	      0.84223722	     -0.56189237	     77.41257679	     -0.25434387	      6.24586461	     84.92668736	      1.48225032	     18.62772093	    -18.64411888	     -7.42090491	     76.21366006	    -14.32750919	     13.75167791	     92.54429361	      1.61520263	     20.87048549	    -28.08630775	     -7.42090491	    -23.59506233	     -0.79482624	      2.16302415	    139.52148690	    -25.08244203	     43.91041949	     83.74299290	    102.55309258	    139.00075557	     -8.87908939	     43.88896276	     74.71551141	    106.28280627
      1.69000000	    -22.30781910	     -5.31232488	     -7.36164269	     -0.36620337	      0.85887735	     -0.56274900	     74.73279938	     -0.18752923	      6.52431234	     82.45725704	      1.43915063	     18.55211281	    -19.27400304	     -7.42197095	     73.62590134	    -14.30081450	     13.08306149	     89.94177597	      1.56978013	     20.57024875	    -27.67171790	     -7.42197095	    -23.06249578	     -0.66529611	      1.24207462	    141.09922895	    -26.03355533	     45.59113097	     83.52385462	    102.34389348	    140.79057381	     -9.82738075	     45.91683617	     73.60158154	    106.21977394
      1.70000000	    -21.74641673	     -5.30232947	     -6.90869658	     -0.36002369	      0.87601602	     -0.56351400	     71.99158802	     -0.15530719	      6.79198302	     79.81037522	      1.39295382	     18.00620847	    -20.13496374	     -7.42351225	     70.96869947	    -14.34121941	     12.35030803	     87.13741234	      1.52083475	     20.20704880	    -27.17210541	     -7.42351225	    -22.40397323	     -0.54575803	      0.44892072	    142.68705008	    -27.20973574	     47.56270965	     83.62567044	    101.97564190	    142.49602740	    -10.96794768	     48.26858135	     72.47575789	    106.02546648
      1.71000000	    -21.15583282	     -5.34923052	     -6.47433920	     -0.35342234	      0.89377353	     -0.56422230	     69.12309210	     -0.14203588	      7.00671538	     76.96349312	      1.34326636	     17.26971100	    -20.91932081	     -7.42503901	     68.22010739	    -14.48741100	     11.59125912	     84.15902825	      1.46885214	     19.73419141	    -26.57737909	     -7.42503901	    -21.70728224	     -0.38680793	     -0.19922431	    144.21485435	    -28.63045817	     49.62303045	     84.18816012	    101.55949170	    144.03416123	    -12.33739957	     50.81406393	     71.76707147	    105.81020141
      1.72000000	    -20.54022377	     -5.36522725	     -6.06354747	     -0.34638693	      0.91215136	     -0.56492503	     66.18021468	     -0.19872010	      7.19940060	     73.94264574	      1.29054263	     16.25182511	    -21.55372000	     -7.42653398	     65.36464546	    -14.69610624	     10.67937673	     81.01111944	      1.41391076	     19.16857221	    -25.96738982	     -7.42653398	    -20.95712396	     -0.26967487	     -0.70308944	    145.73854102	    -30.31099382	     51.76625855	     85.19851608	    101.06912499	    145.41974282	    -14.04182482	     53.65009547	     71.72419631	    105.54036307
      1.73000000	    -19.84022464	     -5.26057025	     -5.65733876	     -0.33902531	      0.93117061	     -0.56583975	     63.13900758	     -0.42919511	      7.36757826	     70.74981840	      1.23481728	     14.69796381	    -22.36521180	     -7.42843513	     62.33126843	    -14.83809712	      9.53923954	     77.70480792	      1.35620474	     18.41901920	    -25.54773117	     -7.42843513	    -20.26439561	     -0.26118467	     -1.11314022	    147.59431337	    -32.22599406	     54.43546750	     86.42405294	    100.34046814	    146.87170178	    -16.18801196	     56.96394219	     72.29889433	    105.05612314
      1.74000000	    -19.14700546	     -5.13447679	     -5.20406906	     -0.33111342	      0.95104717	     -0.56696977	     60.01052721	     -0.79485724	      7.50149818	     67.36778946	      1.17578974	     13.10769138	    -22.67386093	     -7.42994500	     59.21453339	    -14.91556463	      8.31310525	     74.13579925	      1.29391379	     17.39756438	    -25.09700149	     -7.42994500	    -19.47829815	     -0.21290669	     -1.43543998	    149.37352079	    -34.38819587	     57.16000841	     88.17011956	     99.85683951	    147.93360852	    -18.81194304	     59.89315339	     73.92126475	    104.75744102
      1.75000000	    -18.48045006	     -5.09739332	     -4.75798045	     -0.32267841	      0.97155887	     -0.56819631	     56.81814878	     -1.22218241	      7.40692852	     63.72069903	      1.11213600	     10.68696613	    -23.14896547	     -7.43309314	     56.15724004	    -15.06701493	      7.04870216	     70.55220096	      1.23136820	     15.65854427	    -24.78618722	     -7.43309314	    -18.56457327	     -0.08424201	     -1.39202439	    151.54608728	    -36.99583677	     60.63743886	     90.44814105	     98.65165048	    148.58559807	    -21.59908527	     62.57640002	     76.02785447	    103.83281881
      1.76000000	    -17.72823432	     -5.03588754	     -4.39037570	     -0.31367247	      0.99315968	     -0.56932970	     53.50247441	     -1.70353928	      7.28182728	     60.00644978	      1.04731012	      8.94568600	    -22.09470087	     -7.43399987	     52.83406051	    -15.29290997	      5.61799373	     66.63766189	      1.16304661	     14.08480573	    -23.68291844	     -7.43399987	    -17.65078897	     -0.07513011	     -1.46214815	    152.81022239	    -39.70534776	     62.83382535	     93.33996613	     98.58861089	    148.93626257	    -24.80818162	     64.77954349	     78.89996281	    103.95475590
      1.77000000	    -16.69333065	     -4.89413524	     -4.08807194	     -0.30423143	      1.01587867	     -0.57089112	     49.79011374	     -2.37179145	      6.89437853	     55.89323248	      0.97552094	      5.96827239	    -21.89223953	     -7.43968158	     49.11388928	    -15.45021170	      3.91390636	     62.52918301	      1.09134012	     11.39168630	    -23.47910100	     -7.43968158	    -17.01264087	     -0.12239166	     -0.66461120	    156.26766428	    -43.03059981	     68.20466269	     96.46065632	     96.79077919	    148.81907037	    -27.95836956	     67.01265426	     81.82339610	    102.63197198
      1.78000000	    -15.65219983	     -4.62923506	     -3.88720246	     -0.29412020	      1.03940481	     -0.57259937	     45.97683824	     -3.22726805	      6.31893781	     51.48850679	      0.89864397	      3.35185484	    -20.48908507	     -7.44472993	     45.15720073	    -15.53384585	      1.96089969	     58.08716606	      1.01381230	      8.85205037	    -22.49722696	     -7.44472993	    -16.24269525	     -0.25974042	     -0.28387333	    158.91817870	    -46.25656281	     72.74563137	    100.03808058	     95.90262052	    148.81968164	    -31.99433243	     69.72471624	     85.43706975	    102.17398789
      1.79000000	    -14.37832278	     -4.22589621	     -3.84843904	     -0.28318354	      1.06411177	     -0.57416739	     41.77929709	     -4.21054809	      5.58844553	     46.69899999	      0.81505131	      0.51063419	    -18.50812597	     -7.44627273	     40.61315881	    -15.53058119	     -0.39265429	     53.17197396	      0.92802602	      6.21101615	    -21.06972657	     -7.44627273	    -15.61318997	     -0.51066965	     -0.21878830	    161.00776071	    -49.30743863	     76.97673314	    103.71270876	     96.08833770	    149.37196804	    -36.97661738	     73.47192530	     89.50085249	    102.58419842
      1.80000000	    -12.82625808	     -3.72147339	     -4.00742598	     -0.27136191	      1.09016780	     -0.57561303	     37.10495350	     -5.27988413	      4.69289641	     41.41533320	      0.72283393	     -2.95824666	    -16.01805173	     -7.44762709	     35.39095885	    -15.42081797	     -3.18936189	     47.69469305	      0.83242943	      2.88623899	    -19.46582377	     -7.44762709	    -15.20308632	     -0.88976303	      0.11919318	    163.64332310	    -52.56719338	     82.11581827	    107.78599991	     96.37538358	    149.98504489	    -42.37025476	     77.65909153	     93.65695049	    102.99096134
